<svg xmlns="http://www.w3.org/2000/svg" style="display: none;">
  
	<symbol id="01" viewBox="0 0 24 24" fill="none">
		<path d="M12 3V4M12 20V21M4 12H3M6.31412 6.31412L5.5 5.5M17.6859 6.31412L18.5 5.5M6.31412 17.69L5.5 18.5001M17.6859 17.69L18.5 18.5001M21 12H20M16 12C16 14.2091 14.2091 16 12 16C9.79086 16 8 14.2091 8 12C8 9.79086 9.79086 8 12 8C14.2091 8 16 9.79086 16 12Z" stroke="#000000" stroke-width="2" stroke-linecap="round" stroke-linejoin="round"/>
	</symbol>

	<symbol id="02" viewBox="0 0 24 24" fill="none">
		<path d="M11.0947 8.02658C11.5476 5.73111 13.5717 4 16 4C18.7614 4 21 6.23858 21 9C21 11.0345 19.7849 12.7852 18.0408 13.5659M11.0947 8.02658C9.24194 8.21766 7.68947 9.4193 7 11C4.6 11.375 3 13.3144 3 15.4137C3 17.9466 5.14903 20 7.8 20L15 20C17.2091 20 19 18.2719 19 16.1402C19 15.1829 18.6388 14.2698 18.0408 13.5659M11.0947 8.02658C11.265 8.00902 11.4378 8 11.6127 8C14.2747 8 16.4504 9.99072 16.6 12.5C17.1583 12.7354 17.6501 13.106 18.0408 13.5659" stroke="#000000" stroke-width="2" stroke-linecap="round" stroke-linejoin="round"/>
	</symbol>

	<symbol id="03" viewBox="0 0 24 24" fill="none">
		<path d="M3 13.6493C3 16.6044 5.41766 19 8.4 19L16.5 19C18.9853 19 21 16.9839 21 14.4969C21 12.6503 19.8893 10.9449 18.3 10.25C18.1317 7.32251 15.684 5 12.6893 5C10.3514 5 8.34694 6.48637 7.5 8.5C4.8 8.9375 3 11.2001 3 13.6493Z" stroke="#000000" stroke-width="2" stroke-linecap="round" stroke-linejoin="round"/>
	</symbol>

	<symbol id="04" viewBox="0 0 24 24" fill="none">
			<path d="M5.38846 12.7023C3.98522 12.1237 3 10.7636 3 9.17807C3 7.42863 4.3 5.8125 6.25 5.5C6.86168 4.0617 8.30934 3 9.9978 3C12.1607 3 13.9285 4.65893 14.05 6.75C14.8721 7.10549 15.5169 7.83126 15.8166 8.69914M5.38846 12.7023C4.50928 13.5938 4 14.7867 4 16.0315C4 18.7755 6.28335 21 9.1 21L16.75 21C19.0972 21 21 19.1279 21 16.8185C21 15.1039 19.951 13.5202 18.45 12.875C18.3457 11.0905 17.3135 9.5483 15.8166 8.69914M5.38846 12.7023C6.11557 11.9651 7.0957 11.4339 8.25 11.25C9.04989 9.3802 10.943 8 13.151 8C14.1227 8 15.0333 8.25474 15.8166 8.69914" stroke="#000000" stroke-width="2" stroke-linecap="round" stroke-linejoin="round"/>
	</symbol>

	<symbol id="09" viewBox="0 0 24 24" fill="none">
		<path d="M19.3278 16C20.3478 15.1745 21 13.9119 21 12.4969C21 10.6503 19.8893 8.94488 18.3 8.25C18.1317 5.32251 15.684 3 12.6893 3C10.3514 3 8.34694 4.48637 7.5 6.5C4.8 6.9375 3 9.20008 3 11.6493C3 13.1613 3.63296 14.5269 4.65065 15.5M8 18V20M8 12V14M12 19V21M16 18V20M16 12V14M12 13V15" stroke="#000000" stroke-width="2" stroke-linecap="round" stroke-linejoin="round"/>
	</symbol>

	<symbol id="10" viewBox="0 0 24 24" fill="none">
		<path d="M4 14.7519C3.37037 13.8768 3 12.8059 3 11.6493C3 9.20008 4.8 6.9375 7.5 6.5C8.34694 4.48637 10.3514 3 12.6893 3C15.684 3 18.1317 5.32251 18.3 8.25C19.8893 8.94488 21 10.6503 21 12.4969C21 13.5693 20.6254 14.5541 20 15.3275M12.5 12.9995L10.5 21.0008M8.5 11.9995L6.5 20.0008M16.5 12L14.5 20.0013" stroke="#000000" stroke-width="2" stroke-linecap="round" stroke-linejoin="round"/>
	</symbol>

	<symbol id="11" viewBox="0 0 24 24" fill="none">
		<path d="M13 11L10 16H15L12 21M6 16.4438C4.22194 15.5683 3 13.7502 3 11.6493C3 9.20008 4.8 6.9375 7.5 6.5C8.34694 4.48637 10.3514 3 12.6893 3C15.684 3 18.1317 5.32251 18.3 8.25C19.8893 8.94488 21 10.6503 21 12.4969C21 14.0582 20.206 15.4339 19 16.2417" stroke="#000000" stroke-width="2" stroke-linecap="round" stroke-linejoin="round"/>
	</symbol>

	<symbol id="13" viewBox="0 0 24 24" fill="none">
		<path d="M11.9994 3V7M11.9994 7V17M11.9994 7L8.99943 4M11.9994 7L14.9994 4M11.9994 17V21M11.9994 17L8.99943 20M11.9994 17L14.9994 20M4.20624 7.49999L7.67034 9.49999M7.67034 9.49999L16.3306 14.5M7.67034 9.49999L3.57227 10.5981M7.67034 9.49999L6.57227 5.40191M16.3306 14.5L19.7947 16.5M16.3306 14.5L17.4287 18.5981M16.3306 14.5L20.4287 13.4019M4.2067 16.5L7.6708 14.5M7.6708 14.5L16.3311 9.49999M7.6708 14.5L3.57273 13.4019M7.6708 14.5L6.57273 18.5981M16.3311 9.49999L19.7952 7.49999M16.3311 9.49999L17.4291 5.40192M16.3311 9.49999L20.4291 10.5981" stroke="#000000" stroke-width="2" stroke-linecap="round" stroke-linejoin="round"/>
	</symbol>

	<symbol id="50" viewBox="0 0 24 24" fill="none">
		<path d="M21 4H3M20 8H6M18 12H9M15 16H8M17 20H12" stroke="#000000" stroke-width="2" stroke-linecap="round" stroke-linejoin="round"/>
	</symbol>

	<symbol id="ligtMode" xmlns="http://www.w3.org/2000/svg" viewBox="0 0 640 640">
		<!--!Font Awesome Free 7.1.0 by @fontawesome - https://fontawesome.com License - https://fontawesome.com/license/free Copyright 2025 Fonticons, Inc.-->
		<path d="M420.9 448C428.2 425.7 442.8 405.5 459.3 388.1C492 353.7 512 307.2 512 256C512 150 426 64 320 64C214 64 128 150 128 256C128 307.2 148 353.7 180.7 388.1C197.2 405.5 211.9 425.7 219.1 448L420.8 448zM416 496L224 496L224 512C224 556.2 259.8 592 304 592L336 592C380.2 592 416 556.2 416 512L416 496zM312 176C272.2 176 240 208.2 240 248C240 261.3 229.3 272 216 272C202.7 272 192 261.3 192 248C192 181.7 245.7 128 312 128C325.3 128 336 138.7 336 152C336 165.3 325.3 176 312 176z"/>
	</symbol>

	<symbol id="darkMode" xmlns="http://www.w3.org/2000/svg" viewBox="0 0 640 640">
		<!--!Font Awesome Free 7.1.0 by @fontawesome - https://fontawesome.com License - https://fontawesome.com/license/free Copyright 2025 Fonticons, Inc.-->
		<path d="M303.3 112.7C196.2 121.2 112 210.8 112 320C112 434.9 205.1 528 320 528C353.3 528 384.7 520.2 412.6 506.3C309.2 482.9 232 390.5 232 280C232 214.2 259.4 154.9 303.3 112.7zM64 320C64 178.6 178.6 64 320 64C339.4 64 358.4 66.2 376.7 70.3C386.6 72.5 394 80.8 395.2 90.8C396.4 100.8 391.2 110.6 382.1 115.2C321.5 145.4 280 207.9 280 280C280 381.6 362.4 464 464 464C469 464 473.9 463.8 478.8 463.4C488.9 462.6 498.4 468.2 502.6 477.5C506.8 486.8 504.6 497.6 497.3 504.6C451.3 548.8 388.8 576 320 576C178.6 576 64 461.4 64 320z"/>
	</symbol>

	<symbol id="eye-slash" viewBox="0 0 640 640">
		<!--!Font Awesome Free 7.1.0 by @fontawesome - https://fontawesome.com License - https://fontawesome.com/license/free Copyright 2025 Fonticons, Inc.-->
		<path d="M73 39.1C63.6 29.7 48.4 29.7 39.1 39.1C29.8 48.5 29.7 63.7 39 73.1L567 601.1C576.4 610.5 591.6 610.5 600.9 601.1C610.2 591.7 610.3 576.5 600.9 567.2L504.5 470.8C507.2 468.4 509.9 466 512.5 463.6C559.3 420.1 590.6 368.2 605.5 332.5C608.8 324.6 608.8 315.8 605.5 307.9C590.6 272.2 559.3 220.2 512.5 176.8C465.4 133.1 400.7 96.2 319.9 96.2C263.1 96.2 214.3 114.4 173.9 140.4L73 39.1zM236.5 202.7C260 185.9 288.9 176 320 176C399.5 176 464 240.5 464 320C464 351.1 454.1 379.9 437.3 403.5L402.6 368.8C415.3 347.4 419.6 321.1 412.7 295.1C399 243.9 346.3 213.5 295.1 227.2C286.5 229.5 278.4 232.9 271.1 237.2L236.4 202.5zM357.3 459.1C345.4 462.3 332.9 464 320 464C240.5 464 176 399.5 176 320C176 307.1 177.7 294.6 180.9 282.7L101.4 203.2C68.8 240 46.4 279 34.5 307.7C31.2 315.6 31.2 324.4 34.5 332.3C49.4 368 80.7 420 127.5 463.4C174.6 507.1 239.3 544 320.1 544C357.4 544 391.3 536.1 421.6 523.4L357.4 459.2z"/>
	</symbol>

	<symbol id="cross" fill="#1a1a1aff" viewBox="0 0 16 16" xmlns="http://www.w3.org/2000/svg">
		<!--
		// 16pxls (c) by Paul mackenzie <paul@whatspauldoing.com>
		//
		// 16pxls is licensed under a
		// Creative Commons Attribution-ShareAlike 4.0 International License.
		//
		// You should have received a copy of the license along with this
		// work. If not, see <http://creativecommons.org/licenses/by-sa/4.0/>.
		-->
		<path d="M0 14.545L1.455 16 8 9.455 14.545 16 16 14.545 9.455 8 16 1.455 14.545 0 8 6.545 1.455 0 0 1.455 6.545 8z" fill-rule="evenodd"/>
	</symbol>

	<symbol id="eye" viewBox="0 0 640 640">
		<!--!Font Awesome Free 7.1.0 by @fontawesome - https://fontawesome.com License - https://fontawesome.com/license/free Copyright 2025 Fonticons, Inc.-->
		<path d="M320 96C239.2 96 174.5 132.8 127.4 176.6C80.6 220.1 49.3 272 34.4 307.7C31.1 315.6 31.1 324.4 34.4 332.3C49.3 368 80.6 420 127.4 463.4C174.5 507.1 239.2 544 320 544C400.8 544 465.5 507.2 512.6 463.4C559.4 419.9 590.7 368 605.6 332.3C608.9 324.4 608.9 315.6 605.6 307.7C590.7 272 559.4 220 512.6 176.6C465.5 132.9 400.8 96 320 96zM176 320C176 240.5 240.5 176 320 176C399.5 176 464 240.5 464 320C464 399.5 399.5 464 320 464C240.5 464 176 399.5 176 320zM320 256C320 291.3 291.3 320 256 320C244.5 320 233.7 317 224.3 311.6C223.3 322.5 224.2 333.7 227.2 344.8C240.9 396 293.6 426.4 344.8 412.7C396 399 426.4 346.3 412.7 295.1C400.5 249.4 357.2 220.3 311.6 224.3C316.9 233.6 320 244.4 320 256z"/>
	</symbol>
</svg>